<svg width="28" height="28" viewBox="0 0 28 28" fill="none" xmlns="http://www.w3.org/2000/svg">
<path d="M11.0833 16.0417C11.0833 17.1733 11.9583 18.0833 13.0317 18.0833H15.225C16.1583 18.0833 16.9167 17.29 16.9167 16.2983C16.9167 15.2367 16.45 14.8517 15.7617 14.6067L12.25 13.3817C11.5617 13.1367 11.095 12.7633 11.095 11.69C11.095 10.71 11.8533 9.90501 12.7867 9.90501H14.98C16.0533 9.90501 16.9283 10.815 16.9283 11.9467" stroke="#2F1155" stroke-width="1.5" stroke-linecap="round" stroke-linejoin="round"/>
<path d="M14 8.75V19.25" stroke="#2F1155" stroke-width="1.5" stroke-linecap="round" stroke-linejoin="round"/>
<path d="M25.6667 14C25.6667 20.44 20.44 25.6667 14 25.6667C7.56 25.6667 2.33333 20.44 2.33333 14C2.33333 7.56 7.56 2.33333 14 2.33333" stroke="#2F1155" stroke-width="1.5" stroke-linecap="round" stroke-linejoin="round"/>
<path d="M25.6667 7V2.33333H21" stroke="#2F1155" stroke-width="1.5" stroke-linecap="round" stroke-linejoin="round"/>
<path d="M19.8333 8.16667L25.6667 2.33333" stroke="#2F1155" stroke-width="1.5" stroke-linecap="round" stroke-linejoin="round"/>
</svg>
