<svg width="68" height="68" viewBox="0 0 68 68" fill="none" xmlns="http://www.w3.org/2000/svg">
<g filter="url(#filter0_d_36_481)">
<path d="M12 28C12 16.9543 20.9543 8 32 8H36C47.0457 8 56 16.9543 56 28V32C56 43.0457 47.0457 52 36 52H32C20.9543 52 12 43.0457 12 32V28Z" fill="white"/>
<path d="M34.02 20.91C30.71 20.91 28.02 23.6 28.02 26.91V29.8C28.02 30.41 27.76 31.34 27.45 31.86L26.3 33.77C25.59 34.95 26.08 36.26 27.38 36.7C31.69 38.14 36.34 38.14 40.65 36.7C41.86 36.3 42.39 34.87 41.73 33.77L40.58 31.86C40.28 31.34 40.02 30.41 40.02 29.8V26.91C40.02 23.61 37.32 20.91 34.02 20.91Z" stroke="#130138" stroke-width="1.5" stroke-miterlimit="10" stroke-linecap="round"/>
<path d="M35.87 21.2C35.56 21.11 35.24 21.04 34.91 21C33.95 20.88 33.03 20.95 32.17 21.2C32.46 20.46 33.18 19.94 34.02 19.94C34.86 19.94 35.58 20.46 35.87 21.2Z" stroke="#130138" stroke-width="1.5" stroke-miterlimit="10" stroke-linecap="round" stroke-linejoin="round"/>
<path d="M37.02 37.06C37.02 38.71 35.67 40.06 34.02 40.06C33.2 40.06 32.44 39.72 31.9 39.18C31.36 38.64 31.02 37.88 31.02 37.06" stroke="#130138" stroke-width="1.5" stroke-miterlimit="10"/>
</g>
<defs>
<filter id="filter0_d_36_481" x="0" y="0" width="68" height="68" filterUnits="userSpaceOnUse" color-interpolation-filters="sRGB">
<feFlood flood-opacity="0" result="BackgroundImageFix"/>
<feColorMatrix in="SourceAlpha" type="matrix" values="0 0 0 0 0 0 0 0 0 0 0 0 0 0 0 0 0 0 127 0" result="hardAlpha"/>
<feOffset dy="4"/>
<feGaussianBlur stdDeviation="6"/>
<feComposite in2="hardAlpha" operator="out"/>
<feColorMatrix type="matrix" values="0 0 0 0 0.152941 0 0 0 0 0.133333 0 0 0 0 0.27451 0 0 0 0.1 0"/>
<feBlend mode="normal" in2="BackgroundImageFix" result="effect1_dropShadow_36_481"/>
<feBlend mode="normal" in="SourceGraphic" in2="effect1_dropShadow_36_481" result="shape"/>
</filter>
</defs>
</svg>
